# xmcd
#
# Track frame offsets:
#	150
#	18097
#	39628
#	58336
#	75480
#	95519
#	114292
#	131167
#	149831
#	169388
#	187285
#	205158
#	230096
#	248554
#	264120
#	283398
#	299971
#	318473
#
# Disc length: 4490
#
# Revision: 1
# Processed by: cddbd v1.5.1PL0 Copyright (c) Steve Scherf et al.
# Submitted via: EasyCDDAExtractor 7.1.2.1
# Normalized: r0:DSETVAR1
#
DISCID=20118812
DTITLE=Various Artist - Pure Groove 80's Slowjams
DYEAR=2004
DGENRE=R&B
TTITLE0=Marvin Gaye - Sexual Healing
TTITLE1=Barry White - Just The Way You Are
TTITLE2=Michael Jackson - One Day In Your Life
TTITLE3=Smokey Robinson - Being With You
TTITLE4=Lionel Richie and Diana Ross - Endless Love
TTITLE5=Phyllis Nelson - Move Closer
TTITLE6=Fat Larry's Band - Zoom
TTITLE7=Randy Crawford - Almaz
TTITLE8=Commodores - Easy
TTITLE9=Kool and The Gang - Joanna
TTITLE10=Rose Royce - Love Don't Live Here Any More
TTITLE11=Atlantic Starr - Secret Lovers
TTITLE12=David Grant and Jaki Graham - Could It Be I'm Falling In Love
TTITLE13=Jermaine Jackson - Do What You Do
TTITLE14=Luther Vandross - If Only For One Night
TTITLE15=Teddy Pendergrass - Love TKO
TTITLE16=Gregory Abbott - Shake You Down
TTITLE17=Dennis Edwards Feat. Siedah Garrett - Don't Look Any Further
EXTD=
EXTT0=
EXTT1=
EXTT2=
EXTT3=
EXTT4=
EXTT5=
EXTT6=
EXTT7=
EXTT8=
EXTT9=
EXTT10=
EXTT11=
EXTT12=
EXTT13=
EXTT14=
EXTT15=
EXTT16=
EXTT17=
PLAYORDER=
